<svg xmlns="http://www.w3.org/2000/svg" xmlns:xlink="http://www.w3.org/1999/xlink" version="1.1" width="256" height="256" viewBox="0 0 256 256" xml:space="preserve">
<desc>Created with Fabric.js 1.7.22</desc>
<defs>
</defs>
<g transform="translate(128 128) scale(0.72 0.72)" style="">
	<g style="stroke: none; stroke-width: 0; stroke-dasharray: none; stroke-linecap: butt; stroke-linejoin: miter; stroke-miterlimit: 10; fill: none; fill-rule: nonzero; opacity: 1;" transform="translate(-175.05 -175.05000000000004) scale(3.89 3.89)" >
	<path d="M 87.424 13.729 H 45.239 h -0.478 H 2.576 C 1.153 13.729 0 14.883 0 16.305 v 57.39 c 0 1.422 1.153 2.576 2.576 2.576 h 42.185 h 0.478 h 42.185 c 1.422 0 2.576 -1.153 2.576 -2.576 v -57.39 C 90 14.883 88.847 13.729 87.424 13.729 z M 13.631 68.988 c 0 0.733 -0.594 1.328 -1.328 1.328 H 6.328 C 5.595 70.316 5 69.721 5 68.988 v -5.976 c 0 -0.733 0.595 -1.328 1.328 -1.328 h 5.976 c 0.733 0 1.328 0.594 1.328 1.328 V 68.988 z M 13.631 54.988 c 0 0.733 -0.594 1.328 -1.328 1.328 H 6.328 C 5.595 56.316 5 55.721 5 54.988 v -5.976 c 0 -0.733 0.595 -1.328 1.328 -1.328 h 5.976 c 0.733 0 1.328 0.594 1.328 1.328 V 54.988 z M 13.631 40.988 c 0 0.733 -0.594 1.328 -1.328 1.328 H 6.328 C 5.595 42.316 5 41.721 5 40.988 v -5.976 c 0 -0.733 0.595 -1.328 1.328 -1.328 h 5.976 c 0.733 0 1.328 0.594 1.328 1.328 V 40.988 z M 13.631 26.988 c 0 0.733 -0.594 1.328 -1.328 1.328 H 6.328 C 5.595 28.316 5 27.721 5 26.988 v -5.976 c 0 -0.733 0.595 -1.328 1.328 -1.328 h 5.976 c 0.733 0 1.328 0.594 1.328 1.328 V 26.988 z M 56.287 46.381 L 35.604 58.322 c -1.063 0.614 -2.392 -0.153 -2.392 -1.381 V 33.059 c 0 -1.228 1.329 -1.995 2.392 -1.381 l 20.683 11.941 C 57.35 44.233 57.35 45.767 56.287 46.381 z M 85 68.988 c 0 0.733 -0.595 1.328 -1.328 1.328 h -5.976 c -0.733 0 -1.328 -0.595 -1.328 -1.328 v -5.976 c 0 -0.733 0.594 -1.328 1.328 -1.328 h 5.976 c 0.733 0 1.328 0.594 1.328 1.328 V 68.988 z M 85 54.988 c 0 0.733 -0.595 1.328 -1.328 1.328 h -5.976 c -0.733 0 -1.328 -0.595 -1.328 -1.328 v -5.976 c 0 -0.733 0.594 -1.328 1.328 -1.328 h 5.976 c 0.733 0 1.328 0.594 1.328 1.328 V 54.988 z M 85 40.988 c 0 0.733 -0.595 1.328 -1.328 1.328 h -5.976 c -0.733 0 -1.328 -0.595 -1.328 -1.328 v -5.976 c 0 -0.733 0.594 -1.328 1.328 -1.328 h 5.976 c 0.733 0 1.328 0.594 1.328 1.328 V 40.988 z M 85 26.988 c 0 0.733 -0.595 1.328 -1.328 1.328 h -5.976 c -0.733 0 -1.328 -0.595 -1.328 -1.328 v -5.976 c 0 -0.733 0.594 -1.328 1.328 -1.328 h 5.976 c 0.733 0 1.328 0.594 1.328 1.328 V 26.988 z" style="stroke: none; stroke-width: 1; stroke-dasharray: none; stroke-linecap: butt; stroke-linejoin: miter; stroke-miterlimit: 10; fill: rgb(0,0,0); fill-rule: nonzero; opacity: 1;" transform=" matrix(1 0 0 1 0 0) " stroke-linecap="round" />
</g>
</g>
</svg>